Coordinates
version=1
nRows=22
nColumns=24
inDegrees=yes

Units are S.I. units (second, meters, Newtons, ...)
Angles are in degrees.

endheader
time	pelvis_tilt	pelvis_list	pelvis_rotation	pelvis_tx	pelvis_ty	pelvis_tz	hip_flexion_r	hip_adduction_r	hip_rotation_r	knee_angle_r	ankle_angle_r	subtalar_angle_r	mtp_angle_r	hip_flexion_l	hip_adduction_l	hip_rotation_l	knee_angle_l	ankle_angle_l	subtalar_angle_l	mtp_angle_l	lumbar_extension	lumbar_bending	lumbar_rotation
      1.52533333	     -7.20516133	      4.41720419	      0.18308693	      0.51150897	      0.99144991	      0.31739716	     26.04927505	     -6.32908569	     -0.29522307	    -65.39835391	     -0.22707431	    -10.72029593	      3.77852947	     14.62742462	     10.02998600	      3.45671990	     -9.43643622	     -0.23648180	    -15.78781383	      0.58521009	      5.79413243	     -2.67815317	      7.25838971
      1.52950000	     -7.14650147	      4.33326938	      0.32419900	      0.51627600	      0.99204961	      0.31715628	     26.54961302	     -6.24054480	     -0.29684118	    -64.94649463	      0.23978412	    -10.80078102	      3.72829444	     14.09947537	      9.97192661	      3.61453013	     -9.16063154	     -0.11908903	    -15.70306241	      0.57065228	      5.71509827	     -2.59857043	      7.13821954
      1.53366667	     -7.07555364	      4.25276625	      0.46475538	      0.52101829	      0.99263960	      0.31693391	     27.02459269	     -6.14997573	     -0.28710775	    -64.45242260	      0.69600972	    -10.86664278	      3.67373450	     13.56188476	      9.91273295	      3.77569988	     -8.88712885	      0.00048544	    -15.61149122	      0.55536527	      5.59971269	     -2.52688198	      6.99290457
      1.53783333	     -6.98496478	      4.16669755	      0.61537326	      0.52575946	      0.99324017	      0.31669989	     27.45611161	     -6.06195997	     -0.29535428	    -63.89943576	      1.08108007	    -10.90677193	      3.45174187	     13.00011626	      9.84670329	      3.95383896	     -8.60601788	      0.10024859	    -15.51119124	      0.48941168	      5.45638051	     -2.45017550	      6.66780635
      1.54200000	     -6.94281167	      4.09023837	      0.75653913	      0.53046754	      0.99369829	      0.31648035	     27.94130154	     -5.97777895	     -0.28530410	    -63.33200669	      1.51799455	    -10.94607868	      3.40222445	     12.51211535	      9.78695445	      4.10426651	     -8.36380406	      0.24821800	    -15.42090930	      0.47756284	      5.37425522	     -2.38273781	      6.60988768
      1.54616667	     -6.84931147	      4.02009488	      0.89681944	      0.53519159	      0.99420853	      0.31627558	     28.34918218	     -5.90085736	     -0.27479543	    -62.71162432	      1.90661216	    -10.97478854	      3.28311960	     11.96009179	      9.72810566	      4.24605666	     -8.10220184	      0.39205035	    -15.30541508	      0.44736909	      5.22512296	     -2.32779773	      6.39187431
      1.55033333	     -6.79240215	      3.93130197	      1.05887457	      0.53989932	      0.99465676	      0.31605360	     28.77281222	     -5.81294957	     -0.28921799	    -62.03974209	      2.27928850	    -10.99341522	      3.22136188	     11.46146162	      9.65088615	      4.41187358	     -7.86757308	      0.51204453	    -15.19624003	      0.43379078	      5.12658860	     -2.25721170	      6.28706617
      1.55450000	     -6.70359699	      3.86899470	      1.20195915	      0.54461266	      0.99507907	      0.31583669	     29.15877507	     -5.75271878	     -0.28797126	    -61.34534789	      2.61079753	    -11.01072919	      3.08505712	     10.92050105	      9.59671936	      4.55041723	     -7.61227603	      0.66094413	    -15.07933681	      0.40348710	      4.98021853	     -2.19961492	      6.03285832
      1.55866667	     -6.64408658	      3.80861830	      1.35833724	      0.54930406	      0.99542956	      0.31561641	     29.55989381	     -5.69775070	     -0.29237053	    -60.61333733	      2.93288206	    -11.02852181	      2.92487634	     10.42252851	      9.54443719	      4.70930138	     -7.37826669	      0.79290766	    -14.97109165	      0.36916634	      4.86612703	     -2.15092650	      5.83667527
      1.56283333	     -6.56545761	      3.73514561	      1.51374388	      0.55400877	      0.99578783	      0.31539655	     29.91765234	     -5.63208139	     -0.30953193	    -59.83124997	      3.22176679	    -11.05913613	      2.79515939	      9.90764329	      9.47479312	      4.85191197	     -7.15018370	      0.94269757	    -14.86153275	      0.34536931	      4.74067760	     -2.08735821	      5.67792419
      1.56700000	     -6.52307816	      3.66369274	      1.67915836	      0.55867830	      0.99605646	      0.31518389	     30.30075100	     -5.56981273	     -0.32711665	    -59.01561434	      3.49943694	    -11.09108398	      2.72377915	      9.44477609	      9.40626881	      5.01435183	     -6.94408421	      1.07664499	    -14.75601696	      0.33530700	      4.65231328	     -2.03351596	      5.56915086
      1.57116667	     -6.47629682	      3.60671276	      1.83747249	      0.56335131	      0.99627890	      0.31497568	     30.66963069	     -5.52285971	     -0.34027372	    -58.17618527	      3.74500935	    -11.14131201	      2.64612708	      8.97502811	      9.34995543	      5.16560954	     -6.73191416	      1.22678417	    -14.64927339	      0.32559039	      4.55067800	     -1.98925816	      5.40780630
      1.57533333	     -6.41273385	      3.55620660	      1.99385444	      0.56803045	      0.99649457	      0.31476494	     31.00202253	     -5.48543212	     -0.35552169	    -57.29784956	      3.95576453	    -11.19980337	      2.56140529	      8.48969923	      9.29771136	      5.31336007	     -6.52479466	      1.37997020	    -14.54141431	      0.31640339	      4.43048979	     -1.95147457	      5.22757676
      1.57950000	     -6.34880205	      3.50785111	      2.14706655	      0.57270517	      0.99668902	      0.31456752	     31.31738563	     -5.44786722	     -0.36818356	    -56.38366530	      4.13733110	    -11.27518764	      2.47548518	      8.00767684	      9.24423378	      5.45687386	     -6.32306942	      1.53168799	    -14.43224910	      0.30829932	      4.30942281	     -1.91528869	      5.05428961
      1.58366667	     -6.27981007	      3.47757675	      2.29948828	      0.57737910	      0.99684429	      0.31436663	     31.61515210	     -5.43275589	     -0.38240778	    -55.44546167	      4.29386997	    -11.36719243	      2.37225431	      7.52156537	      9.20789015	      5.59699464	     -6.12384532	      1.68869101	    -14.32515210	      0.29892657	      4.18305201	     -1.89774532	      4.85731065
      1.58783333	     -6.20488562	      3.45362340	      2.43333252	      0.58205200	      0.99696676	      0.31420224	     31.89613148	     -5.41267575	     -0.38018307	    -54.48079865	      4.40616581	    -11.49377719	      2.19376366	      7.02813581	      9.17188097	      5.71264457	     -5.91887709	      1.84974379	    -14.21310906	      0.28153136	      4.04018575	     -1.88864682	      4.60076179
      1.59200000	     -6.16162362	      3.42941233	      2.57963381	      0.58670518	      0.99701459	      0.31402678	     32.19387107	     -5.39931342	     -0.38723467	    -53.48626449	      4.52217080	    -11.61105036	      1.98854673	      6.57935937	      9.13662691	      5.85205903	     -5.73531397	      2.01047103	    -14.10483437	      0.26207819	      3.93043726	     -1.88199840	      4.41292784
      1.59616667	     -6.16042682	      3.39862869	      2.74033219	      0.59136202	      0.99697146	      0.31382661	     32.51755501	     -5.39431239	     -0.42210430	    -52.46203538	      4.64358485	    -11.69050940	      1.89743192	      6.18543463	      9.09698990	      6.00977920	     -5.57383296	      2.17408944	    -14.01386322	      0.25697638	      3.88318921	     -1.87074041	      4.33026989
      1.60033333	     -6.08882460	      3.38390842	      2.87755346	      0.59603735	      0.99701311	      0.31365764	     32.74534066	     -5.38913659	     -0.43174739	    -51.39859554	      4.71772057	    -11.82216326	      1.79196569	      5.70777734	      9.06626994	      6.14994467	     -5.39763320	      2.33874856	    -13.90633457	      0.25129185	      3.75339162	     -1.85888586	      4.18028725
      1.60450000	     -6.04561171	      3.38150576	      2.99449177	      0.60071424	      0.99695030	      0.31353206	     33.00230557	     -5.38634336	     -0.42553398	    -50.32994215	      4.75878231	    -12.00890071	      1.58885020	      5.25884999	      9.04343804	      6.24431638	     -5.21279205	      2.51146867	    -13.79067578	      0.23594458	      3.64380756	     -1.87891168	      3.93445843
      1.60866667	     -6.02809162	      3.37106297	      3.14002099	      0.60538261	      0.99683997	      0.31335744	     33.26063944	     -5.39859593	     -0.46077478	    -49.22572551	      4.83609606	    -12.09262709	      1.48402182	      4.84954493	      9.01638940	      6.39782124	     -5.05810646	      2.68323908	    -13.70042174	      0.23075121	      3.56624290	     -1.88797245	      3.84965787
      1.61283333	     -6.00155363	      3.37611809	      3.26125721	      0.61005923	      0.99670109	      0.31322253	     33.49945207	     -5.41117865	     -0.46938749	    -48.10080700	      4.86829572	    -12.22363467	      1.35755290	      4.42536742	      9.00024408	      6.51992867	     -4.89057764	      2.85414704	    -13.60269417	      0.22320075	      3.47933401	     -1.91306018	      3.70004258
